<?xml version="1.0" encoding="UTF-8"?>
<svg width="154px" height="36px" viewBox="0 0 154 36" version="1.1" xmlns="http://www.w3.org/2000/svg" xmlns:xlink="http://www.w3.org/1999/xlink">
    <!-- Generator: Sketch 52.1 (67048) - http://www.bohemiancoding.com/sketch -->
    <title>avengelogo</title>
    <desc>Created with Sketch.</desc>
    <g id="Page-1" stroke="none" stroke-width="1" fill="none" fill-rule="evenodd">
        <g id="Desktop-HD" transform="translate(-260.000000, -20.000000)">
            <g id="avengelogo" transform="translate(260.000000, 20.000000)">
                <path d="M60.4756636,11.4300188 L65.1571322,11.4210131 L65.1571322,27.0232645 L60.8807907,27.0232645 L60.7187398,24.8844278 C60.1523694,25.6363061 59.4248395,26.251745 58.5895719,26.6855535 C57.6512793,27.148063 56.6148233,27.3759689 55.5691244,27.3497186 C54.2524078,27.356046 52.9605907,26.9908535 51.8419552,26.29606 C50.6865693,25.5802145 49.7420634,24.5701486 49.1050967,23.3692308 C47.745845,20.7509889 47.745845,17.6347522 49.1050967,15.0165103 C49.7439408,13.81991 50.6882516,12.8139368 51.8419552,12.1009381 C52.9605907,11.4061446 54.2524078,11.0409521 55.5691244,11.0472795 C57.6307712,11.0457786 59.2662842,11.7804878 60.4756636,13.2514071 L60.4756636,11.4300188 Z M60.250593,21.2551595 C60.9647295,19.9738942 60.9647295,18.4140982 60.250593,17.132833 C59.5451856,15.8738157 58.2115461,15.097701 56.7687507,15.1065666 C56.0566694,15.0989568 55.3561081,15.28661 54.7431153,15.6491557 C54.1375586,16.0071228 53.637481,16.5190076 53.2936606,17.132833 C52.5825546,18.4148846 52.5825546,19.9731079 53.2936606,21.2551595 C53.6362948,21.8739953 54.1363261,22.3912696 54.7431153,22.7545966 C55.3540407,23.1230091 56.0554402,23.3140051 56.7687507,23.3061914 C57.4817285,23.3114251 58.1824404,23.1206163 58.7943862,22.7545966 C59.4041262,22.3928022 59.9067056,21.8753027 60.250593,21.2551595 Z M78.4790612,11.4300188 L83.4508709,11.4300188 L76.8090373,27.0322702 L73.1066259,27.0322702 L66.5323136,11.4300188 L71.4838668,11.4300188 L74.9657091,21.4893058 L78.4790612,11.4300188 Z M99.6424501,19.0600375 L99.6424501,20.0979362 L88.013052,20.0979362 C88.1751029,21.2311445 88.5937342,22.1084428 89.268946,22.7298311 C89.9608859,23.3575621 90.8695974,23.691775 91.803241,23.6619137 C92.5362052,23.6704217 93.2588814,23.4889208 93.900899,23.1350844 C94.5372557,22.7794697 95.0576785,22.2479416 95.3998693,21.6041276 L99.0820243,23.1170732 C98.4815852,24.4090749 97.4976213,25.4845397 96.2641404,26.1969981 C94.9140244,26.9677129 93.3798655,27.3568196 91.8257481,27.3227017 C90.2789356,27.3542287 88.7501701,26.9858769 87.3873557,26.2532833 C86.1438677,25.580314 85.1126702,24.5737451 84.4096716,23.3467167 C82.9994356,20.7931282 82.9994356,17.6939262 84.4096716,15.1403377 C85.1067233,13.9072491 86.1289644,12.8893624 87.3648487,12.1977486 C89.9640348,10.7980636 93.0840492,10.7618904 95.7149681,12.1009381 C96.9155451,12.7417677 97.911572,13.7076765 98.5891197,14.8881801 C99.3084248,16.1589294 99.6722796,17.6000253 99.6424501,19.0600375 Z M88.2403733,17.132833 L94.8799562,17.1395872 C94.3833004,15.5080675 93.3202169,14.6923077 91.6907057,14.6923077 C90.9171421,14.6687155 90.1562425,14.8927184 89.5187744,15.3317073 C88.910196,15.7790362 88.4619113,16.4106198 88.2403733,17.132833 Z M115.746252,14.0461538 C116.244033,14.9630764 116.497491,15.9927325 116.482233,17.0360225 L116.482233,27.0322702 L111.81877,27.0322702 L111.81877,17.6506567 C111.848033,16.9663553 111.582517,16.3023574 111.089541,15.8270169 C110.000504,14.8875563 108.379944,14.915656 107.32411,15.8923077 C106.81819,16.4018128 106.540446,17.0947637 106.554368,17.812758 L106.554368,27.0435272 L101.8729,27.0435272 L101.8729,11.4412758 L106.554368,11.4412758 L106.554368,13.0172608 C107.09419,12.4083415 107.764239,11.9289259 108.514733,11.6146341 C109.273505,11.2958709 110.088773,11.1335322 110.911735,11.1373358 C111.902647,11.1274887 112.876232,11.397493 113.720616,11.9163227 C114.57293,12.433724 115.272104,13.1688631 115.746252,14.0461538 Z M130.889002,11.4300188 L135.577223,11.4300188 L135.577223,26.4469043 C135.577223,28.2615385 135.202105,29.8255159 134.45187,31.1388368 C133.737712,32.4213656 132.658034,33.4621924 131.350397,34.1287054 C129.934326,34.8299627 128.370257,35.1797869 126.790466,35.1485929 C125.32169,35.137204 123.869195,34.8397322 122.514125,34.2727955 C121.123088,33.7235666 119.904498,32.8116714 118.985018,31.6318949 L121.575581,28.7658537 C122.25199,29.5232324 123.069152,30.1418384 123.981585,30.587242 C124.775683,30.9774619 125.64695,31.1851541 126.531635,31.195122 C127.317742,31.2088173 128.093726,31.0163134 128.782341,30.636773 C129.44674,30.2576037 129.985183,29.6915928 130.330827,29.0090056 C130.719854,28.2186185 130.91139,27.3456236 130.889002,26.4649156 L130.889002,25.1140713 C129.712633,26.6150094 128.098127,27.3654784 126.045483,27.3654784 C124.680402,27.378893 123.338229,27.0142194 122.167516,26.3118199 C120.99332,25.6057406 120.032651,24.5941942 119.387894,23.3849906 C118.028452,20.7588444 118.028452,17.6359023 119.387894,15.0097561 C120.031614,13.8074633 120.989108,12.8022091 122.158513,12.1009381 C123.323375,11.4051534 124.657301,11.0437205 126.013973,11.0562852 C128.063616,11.0562852 129.688626,11.812758 130.889002,13.3257036 L130.889002,11.4300188 Z M130.533391,21.2551595 L130.53114,21.2551595 C131.242246,19.9731079 131.242246,18.4148846 130.53114,17.132833 C130.184577,16.5180581 129.681346,16.0061251 129.072682,15.6491557 C128.147867,15.1121154 127.046948,14.966743 126.014499,15.2453333 C124.982049,15.5239237 124.103566,16.2034065 123.574207,17.132833 C122.868657,18.4163174 122.868657,19.9716751 123.574207,21.2551595 C123.91753,21.8734851 124.417406,22.3905982 125.023662,22.7545966 C126.273016,23.4937091 127.825579,23.4937091 129.074933,22.7545966 C129.684828,22.3922629 130.188012,21.8749408 130.533391,21.2551595 Z M153.86646,19.0600375 L153.873212,20.0889306 L142.241563,20.0889306 C142.403614,21.2221388 142.822246,22.0994371 143.497457,22.7208255 C144.189397,23.3485564 145.098109,23.6827694 146.031752,23.6529081 C146.764753,23.6617243 147.487506,23.4802039 148.12941,23.1260788 C148.766316,22.7711834 149.28692,22.2394703 149.628381,21.595122 L153.306034,23.1170732 C152.704755,24.4092341 151.720032,25.4846698 150.4859,26.1969981 C149.136571,26.9676342 147.603154,27.3567499 146.049758,27.3227017 C144.502946,27.3542287 142.97418,26.9858769 141.611366,26.2532833 C140.367049,25.5806502 139.335041,24.5740509 138.631431,23.3467167 C137.222476,20.7927979 137.222476,17.6942565 138.631431,15.1403377 C139.328632,13.9065957 140.351794,12.8885673 141.588859,12.1977486 C144.187447,10.7988479 147.306416,10.7626771 149.936727,12.1009381 C151.137989,12.7416257 152.134779,13.7075178 152.81313,14.8881801 C153.532435,16.1589294 153.89629,17.6000253 153.86646,19.0600375 Z M142.462133,17.132833 L149.103966,17.1395872 C148.608811,15.5080675 147.544977,14.6923077 145.912465,14.6923077 C145.139603,14.6687246 144.379421,14.8927483 143.742784,15.3317073 C143.1336,15.778917 142.684558,16.4104552 142.462133,17.132833 Z" id="Combined-Shape" fill="#343A38" fill-rule="nonzero"></path>
                <path d="M33.4657481,34.9103189 L24.1995914,16.3699812 C23.2815037,14.5943925 21.452014,13.4773148 19.4536122,13.4721091 C17.4552103,13.4669033 15.6199291,14.5744343 14.692609,16.3452158 L5.41294803,34.9103189 C3.55592778,34.9107711 1.8311558,33.9490932 0.854904616,32.3688992 C-0.121346563,30.7887053 -0.209782761,28.8154616 0.621194868,27.1542214 L7.02445356,14.3414634 L11.7711926,4.84727955 C13.2750389,1.99863943 16.2331372,0.218224464 19.4535757,0.223420338 C22.6740142,0.228616211 25.6263556,2.01856711 27.1210078,4.87204503 L38.2575013,27.1609756 C39.0852713,28.8216461 38.995166,30.792515 38.0193214,32.3706755 C37.0434767,33.9488359 35.3208254,34.9096023 33.4657481,34.9103189 Z M26.3760241,31.4409006 C24.7387707,33.6253728 22.1687338,34.9110696 19.4393481,34.9110696 C16.7099624,34.9110696 14.1399255,33.6253728 12.5026721,31.4409006 L17.740065,20.9673546 C18.1239721,20.4064486 18.7597863,20.0711008 19.4393481,20.0711008 C20.1189099,20.0711008 20.7547241,20.4064486 21.1386311,20.9673546 L26.3760241,31.4409006 Z" id="Combined-Shape" fill="#11458C"></path>
            </g>
        </g>
    </g>
</svg>